<?xml version="1.0" encoding="UTF-8" standalone="no"?>
<svg
   xmlns:dc="http://purl.org/dc/elements/1.1/"
   xmlns:cc="http://creativecommons.org/ns#"
   xmlns:rdf="http://www.w3.org/1999/02/22-rdf-syntax-ns#"
   xmlns:svg="http://www.w3.org/2000/svg"
   xmlns="http://www.w3.org/2000/svg"
   xmlns:sodipodi="http://sodipodi.sourceforge.net/DTD/sodipodi-0.dtd"
   xmlns:inkscape="http://www.inkscape.org/namespaces/inkscape"
   width="1000"
   height="1000"
   version="1.1"
   id="svg174"
   sodipodi:docname="rose.svg"
   inkscape:version="0.92.3 (2405546, 2018-03-11)">
  <metadata
     id="metadata178">
    <rdf:RDF>
      <cc:Work
         rdf:about="">
        <dc:format>image/svg+xml</dc:format>
        <dc:type
           rdf:resource="http://purl.org/dc/dcmitype/StillImage" />
      </cc:Work>
    </rdf:RDF>
  </metadata>
  <sodipodi:namedview
     pagecolor="#ffffff"
     bordercolor="#666666"
     borderopacity="1"
     objecttolerance="10"
     gridtolerance="10"
     guidetolerance="10"
     inkscape:pageopacity="0"
     inkscape:pageshadow="2"
     inkscape:window-width="1076"
     inkscape:window-height="492"
     id="namedview176"
     showgrid="false"
     inkscape:zoom="0.236"
     inkscape:cx="500"
     inkscape:cy="500"
     inkscape:window-x="0"
     inkscape:window-y="55"
     inkscape:window-maximized="0"
     inkscape:current-layer="svg174" />
  <defs
     id="defs4" />
  <g
     id="instance1193"
     stroke-linejoin="round"
     stroke-linecap="round"
     fill-rule="evenodd"
     fill="none"
     transform="translate(500 500)">
    <path
       d=" M 0,0"
       id="path6" />
    <path
       d=" M 15.79,0.807 L 34.206,5.238 L 42.624,13.328 L 47.646,16.988 L 52.077,18.916 L 56.854,20.01 L 61.977,20.271 L 66.772,21.32 L 71.241,23.159 L 75.383,25.786 L 79.198,29.203 L 83.246,32.058 L 87.526,34.351 L 92.039,36.084 L 96.784,37.256 L 101.419,38.693 L 105.943,40.397 L 110.357,42.368 L 114.661,44.604 L 118.973,46.822 L 123.292,49.021 L 127.619,51.202 L 131.954,53.363 L 136.333,55.418 L 140.757,57.366 L 145.224,59.208 L 149.736,60.943 L 154.207,62.775 L 158.639,64.704 L 164.118,67.26 L 173.908,72.035 L 163.835,67.943 L 158.198,65.766 L 153.641,64.141 L 149.044,62.613 L 144.407,61.181 L 139.814,59.643 L 135.265,57.998 L 130.76,56.247 L 126.299,54.389 L 121.846,52.512 L 117.401,50.617 L 112.964,48.702 L 108.534,46.769 L 103.994,45.103 L 99.344,43.702 L 94.583,42.568 L 89.713,41.7 L 85.074,40.271 L 80.668,38.281 L 76.495,35.729 L 72.554,32.616 L 68.286,30.293 L 63.692,28.758 L 58.77,28.012 L 53.522,28.055 L 48.619,27.264 L 44.062,25.64 L 39.85,23.182 L 35.983,19.89 L 31.859,17.22 L 27.477,15.172 L 21.613,13.545 L 10.594,11.736 L 20.483,27.892 L 20.716,39.564 L 21.678,45.703 L 23.449,50.2 L 26.053,54.352 L 29.49,58.158 L 32.139,62.291 L 33.999,66.751 L 35.07,71.538 L 35.352,76.651 L 36.196,81.532 L 37.6,86.18 L 39.566,90.597 L 42.093,94.78 L 44.353,99.074 L 46.348,103.478 L 48.076,107.993 L 49.538,112.618 L 51.018,117.235 L 52.517,121.844 L 54.035,126.445 L 55.572,131.039 L 57.216,135.589 L 58.966,140.094 L 60.822,144.555 L 62.786,148.972 L 64.652,153.43 L 66.422,157.927 L 68.489,163.609 L 72.035,173.908 L 67.806,163.892 L 65.359,158.367 L 63.286,153.995 L 61.116,149.664 L 58.849,145.373 L 56.689,141.037 L 54.635,136.658 L 52.688,132.234 L 50.848,127.766 L 49.026,123.29 L 47.224,118.806 L 45.439,114.315 L 43.674,109.816 L 41.642,105.427 L 39.345,101.149 L 36.78,96.981 L 33.95,92.923 L 31.681,88.632 L 29.973,84.11 L 28.826,79.354 L 28.24,74.367 L 26.865,69.706 L 24.702,65.372 L 21.75,61.364 L 18.008,57.684 L 15.101,53.658 L 13.026,49.287 L 11.786,44.57 L 11.379,39.508 L 10.351,34.704 L 8.7,30.157 L 5.704,24.86 L -0.807,15.79 L -5.238,34.206 L -13.328,42.624 L -16.988,47.646 L -18.916,52.077 L -20.01,56.854 L -20.271,61.977 L -21.32,66.772 L -23.159,71.241 L -25.786,75.383 L -29.203,79.198 L -32.058,83.246 L -34.351,87.526 L -36.084,92.039 L -37.256,96.784 L -38.693,101.419 L -40.397,105.943 L -42.368,110.357 L -44.604,114.661 L -46.822,118.973 L -49.021,123.292 L -51.202,127.619 L -53.363,131.954 L -55.418,136.333 L -57.366,140.757 L -59.208,145.224 L -60.943,149.736 L -62.775,154.207 L -64.704,158.639 L -67.26,164.118 L -72.035,173.908 L -67.943,163.835 L -65.766,158.198 L -64.141,153.641 L -62.613,149.044 L -61.181,144.407 L -59.643,139.814 L -57.998,135.265 L -56.247,130.76 L -54.389,126.299 L -52.512,121.846 L -50.617,117.401 L -48.702,112.964 L -46.769,108.534 L -45.103,103.994 L -43.702,99.344 L -42.568,94.583 L -41.7,89.713 L -40.271,85.074 L -38.281,80.668 L -35.729,76.495 L -32.616,72.554 L -30.293,68.286 L -28.758,63.692 L -28.012,58.77 L -28.055,53.522 L -27.264,48.619 L -25.64,44.062 L -23.182,39.85 L -19.89,35.983 L -17.22,31.859 L -15.172,27.477 L -13.545,21.613 L -11.736,10.594 L -27.892,20.483 L -39.564,20.716 L -45.703,21.678 L -50.2,23.449 L -54.352,26.053 L -58.158,29.49 L -62.291,32.139 L -66.751,33.999 L -71.538,35.07 L -76.651,35.352 L -81.532,36.196 L -86.18,37.6 L -90.597,39.566 L -94.78,42.093 L -99.074,44.353 L -103.478,46.348 L -107.993,48.076 L -112.618,49.538 L -117.235,51.018 L -121.844,52.517 L -126.445,54.035 L -131.039,55.572 L -135.589,57.216 L -140.094,58.966 L -144.555,60.822 L -148.972,62.786 L -153.43,64.652 L -157.927,66.422 L -163.609,68.489 L -173.908,72.035 L -163.892,67.806 L -158.367,65.359 L -153.995,63.286 L -149.664,61.116 L -145.373,58.849 L -141.037,56.689 L -136.658,54.635 L -132.234,52.688 L -127.766,50.848 L -123.29,49.026 L -118.806,47.224 L -114.315,45.439 L -109.816,43.674 L -105.427,41.642 L -101.149,39.345 L -96.981,36.78 L -92.923,33.95 L -88.632,31.681 L -84.11,29.973 L -79.354,28.826 L -74.367,28.24 L -69.706,26.865 L -65.372,24.702 L -61.364,21.75 L -57.684,18.008 L -53.658,15.101 L -49.287,13.026 L -44.57,11.786 L -39.508,11.379 L -34.704,10.351 L -30.157,8.7 L -24.86,5.704 L -15.79,-0.807 L -34.206,-5.238 L -42.624,-13.328 L -47.646,-16.988 L -52.077,-18.916 L -56.854,-20.01 L -61.977,-20.271 L -66.772,-21.32 L -71.241,-23.159 L -75.383,-25.786 L -79.198,-29.203 L -83.246,-32.058 L -87.526,-34.351 L -92.039,-36.084 L -96.784,-37.256 L -101.419,-38.693 L -105.943,-40.397 L -110.357,-42.368 L -114.661,-44.604 L -118.973,-46.822 L -123.292,-49.021 L -127.619,-51.202 L -131.954,-53.363 L -136.333,-55.418 L -140.757,-57.366 L -145.224,-59.208 L -149.736,-60.943 L -154.207,-62.775 L -158.639,-64.704 L -164.118,-67.26 L -173.908,-72.035 L -163.835,-67.943 L -158.198,-65.766 L -153.641,-64.141 L -149.044,-62.613 L -144.407,-61.181 L -139.814,-59.643 L -135.265,-57.998 L -130.76,-56.247 L -126.299,-54.389 L -121.846,-52.512 L -117.401,-50.617 L -112.964,-48.702 L -108.534,-46.769 L -103.994,-45.103 L -99.344,-43.702 L -94.583,-42.568 L -89.713,-41.7 L -85.074,-40.271 L -80.668,-38.281 L -76.495,-35.729 L -72.554,-32.616 L -68.286,-30.293 L -63.692,-28.758 L -58.77,-28.012 L -53.522,-28.055 L -48.619,-27.264 L -44.062,-25.64 L -39.85,-23.182 L -35.983,-19.89 L -31.859,-17.22 L -27.477,-15.172 L -21.613,-13.545 L -10.594,-11.736 L -20.483,-27.892 L -20.716,-39.564 L -21.678,-45.703 L -23.449,-50.2 L -26.053,-54.352 L -29.49,-58.158 L -32.139,-62.291 L -33.999,-66.751 L -35.07,-71.538 L -35.352,-76.651 L -36.196,-81.532 L -37.6,-86.18 L -39.566,-90.597 L -42.093,-94.78 L -44.353,-99.074 L -46.348,-103.478 L -48.076,-107.993 L -49.538,-112.618 L -51.018,-117.235 L -52.517,-121.844 L -54.035,-126.445 L -55.572,-131.039 L -57.216,-135.589 L -58.966,-140.094 L -60.822,-144.555 L -62.786,-148.972 L -64.652,-153.43 L -66.422,-157.927 L -68.489,-163.609 L -72.035,-173.908 L -67.806,-163.892 L -65.359,-158.367 L -63.286,-153.995 L -61.116,-149.664 L -58.849,-145.373 L -56.689,-141.037 L -54.635,-136.658 L -52.688,-132.234 L -50.848,-127.766 L -49.026,-123.29 L -47.224,-118.806 L -45.439,-114.315 L -43.674,-109.816 L -41.642,-105.427 L -39.345,-101.149 L -36.78,-96.981 L -33.95,-92.923 L -31.681,-88.632 L -29.973,-84.11 L -28.826,-79.354 L -28.24,-74.367 L -26.865,-69.706 L -24.702,-65.372 L -21.75,-61.364 L -18.008,-57.684 L -15.101,-53.658 L -13.026,-49.287 L -11.786,-44.57 L -11.379,-39.508 L -10.351,-34.704 L -8.7,-30.157 L -5.704,-24.86 L 0.807,-15.79 L 5.238,-34.206 L 13.328,-42.624 L 16.988,-47.646 L 18.916,-52.077 L 20.01,-56.854 L 20.271,-61.977 L 21.32,-66.772 L 23.159,-71.241 L 25.786,-75.383 L 29.203,-79.198 L 32.058,-83.246 L 34.351,-87.526 L 36.084,-92.039 L 37.256,-96.784 L 38.693,-101.419 L 40.397,-105.943 L 42.368,-110.357 L 44.604,-114.661 L 46.822,-118.973 L 49.021,-123.292 L 51.202,-127.619 L 53.363,-131.954 L 55.418,-136.333 L 57.366,-140.757 L 59.208,-145.224 L 60.943,-149.736 L 62.775,-154.207 L 64.704,-158.639 L 67.26,-164.118 L 72.035,-173.908 L 67.943,-163.835 L 65.766,-158.198 L 64.141,-153.641 L 62.613,-149.044 L 61.181,-144.407 L 59.643,-139.814 L 57.998,-135.265 L 56.247,-130.76 L 54.389,-126.299 L 52.512,-121.846 L 50.617,-117.401 L 48.702,-112.964 L 46.769,-108.534 L 45.103,-103.994 L 43.702,-99.344 L 42.568,-94.583 L 41.7,-89.713 L 40.271,-85.074 L 38.281,-80.668 L 35.729,-76.495 L 32.616,-72.554 L 30.293,-68.286 L 28.758,-63.692 L 28.012,-58.77 L 28.055,-53.522 L 27.264,-48.619 L 25.64,-44.062 L 23.182,-39.85 L 19.89,-35.983 L 17.22,-31.859 L 15.172,-27.477 L 13.545,-21.613 L 11.736,-10.594 L 27.892,-20.483 L 39.564,-20.716 L 45.703,-21.678 L 50.2,-23.449 L 54.352,-26.053 L 58.158,-29.49 L 62.291,-32.139 L 66.751,-33.999 L 71.538,-35.07 L 76.651,-35.352 L 81.532,-36.196 L 86.18,-37.6 L 90.597,-39.566 L 94.78,-42.093 L 99.074,-44.353 L 103.478,-46.348 L 107.993,-48.076 L 112.618,-49.538 L 117.235,-51.018 L 121.844,-52.517 L 126.445,-54.035 L 131.039,-55.572 L 135.589,-57.216 L 140.094,-58.966 L 144.555,-60.822 L 148.972,-62.786 L 153.43,-64.652 L 157.927,-66.422 L 163.609,-68.489 L 173.908,-72.035 L 163.892,-67.806 L 158.367,-65.359 L 153.995,-63.286 L 149.664,-61.116 L 145.373,-58.849 L 141.037,-56.689 L 136.658,-54.635 L 132.234,-52.688 L 127.766,-50.848 L 123.29,-49.026 L 118.806,-47.224 L 114.315,-45.439 L 109.816,-43.674 L 105.427,-41.642 L 101.149,-39.345 L 96.981,-36.78 L 92.923,-33.95 L 88.632,-31.681 L 84.11,-29.973 L 79.354,-28.826 L 74.367,-28.24 L 69.706,-26.865 L 65.372,-24.702 L 61.364,-21.75 L 57.684,-18.008 L 53.658,-15.101 L 49.287,-13.026 L 44.57,-11.786 L 39.508,-11.379 L 34.704,-10.351 L 30.157,-8.7 L 24.86,-5.704 L 15.79,0.807"
       fill="#444444"
       stroke="#444444"
       stroke-width="2"
       stroke-linejoin="round"
       stroke-linecap="butt"
       id="path8" />
    <path
       d=" M 273.335,0 Q 273.335,113.219 193.277,193.277 Q 113.219,273.335 0,273.335 L 0,273.335 Q -113.219,273.335 -193.277,193.277 Q -273.335,113.219 -273.335,0 L -273.335,0 Q -273.335,-113.219 -193.277,-193.277 Q -113.219,-273.335 0,-273.335 L 0,-273.335 Q 113.219,-273.335 193.277,-193.277 Q 273.335,-113.219 273.335,0 L 273.335,0 M 250.056,0 Q 250.056,103.576 176.816,176.816 Q 103.576,250.056 0,250.056 L 0,250.056 Q -103.576,250.056 -176.816,176.816 Q -250.056,103.576 -250.056,0 L -250.056,0 Q -250.056,-103.576 -176.816,-176.816 Q -103.576,-250.056 0,-250.056 L 0,-250.056 Q 103.576,-250.056 176.816,-176.816 Q 250.056,-103.576 250.056,0 L 250.056,0"
       fill="#444444"
       stroke="#444444"
       stroke-width="2"
       stroke-linejoin="round"
       stroke-linecap="butt"
       id="path10" />
    <path
       d=" M 61.468,0 L 193.277,193.277 L 0,61.468 L -193.277,193.277 L -61.468,0 L -193.277,-193.277 L 0,-61.468 L 193.277,-193.277 L 61.468,0"
       fill="#EEEEEE"
       id="path12" />
    <path
       d=" M 0,0 L 193.277,193.277 L 0,61.468 M 0,0 L -193.277,193.277 L -61.468,0 M 0,0 L -193.277,-193.277 L 0,-61.468 M 0,0 L 193.277,-193.277 L 61.468,0"
       fill="#444444"
       id="path14" />
    <path
       d=" M 61.468,0 L 193.277,193.277 L 0,61.468 L -193.277,193.277 L -61.468,0 L -193.277,-193.277 L 0,-61.468 L 193.277,-193.277 L 61.468,0"
       stroke="#444444"
       stroke-width="2"
       stroke-linejoin="round"
       stroke-linecap="butt"
       id="path16" />
    <path
       d=" M 43.508,-43.508 L 300,0 L 43.508,43.508 L 0,300 L -43.508,43.508 L -300,0 L -43.508,-43.508 L 0,-300 L 43.508,-43.508"
       fill="#EEEEEE"
       id="path18" />
    <path
       d=" M 0,0 L 300,0 L 43.508,43.508 M 0,0 L 0,300 L -43.508,43.508 M 0,0 L -300,0 L -43.508,-43.508 M 0,0 L 0,-300 L 43.508,-43.508"
       fill="#444444"
       id="path20" />
    <path
       d=" M 43.508,-43.508 L 300,0 L 43.508,43.508 L 0,300 L -43.508,43.508 L -300,0 L -43.508,-43.508 L 0,-300 L 43.508,-43.508"
       stroke="#444444"
       stroke-width="2"
       stroke-linejoin="round"
       stroke-linecap="butt"
       id="path22" />
    <path
       d=" M 61.53,0 Q 61.53,25.487 43.508,43.508 Q 25.487,61.53 0,61.53 L 0,61.53 Q -25.487,61.53 -43.508,43.508 Q -61.53,25.487 -61.53,0 L -61.53,0 Q -61.53,-25.487 -43.508,-43.508 Q -25.487,-61.53 0,-61.53 L 0,-61.53 Q 25.487,-61.53 43.508,-43.508 Q 61.53,-25.487 61.53,0 L 61.53,0"
       fill="#EEEEEE"
       stroke="#444444"
       stroke-width="2"
       stroke-linejoin="round"
       stroke-linecap="butt"
       id="path24" />
    <path
       d=" M 48.974,0 Q 48.974,20.286 34.63,34.63 Q 20.286,48.974 0,48.974 L 0,48.974 Q -20.286,48.974 -34.63,34.63 Q -48.974,20.286 -48.974,0 L -48.974,0 Q -48.974,-20.286 -34.63,-34.63 Q -20.286,-48.974 0,-48.974 L 0,-48.974 Q 20.286,-48.974 34.63,-34.63 Q 48.974,-20.286 48.974,0 L 48.974,0"
       fill="#EEEEEE"
       stroke="#444444"
       stroke-width="2"
       stroke-linejoin="round"
       stroke-linecap="butt"
       id="path26" />
    <path
       d=" M 34.979,0 Q 34.979,14.489 24.734,24.734 Q 14.489,34.979 0,34.979 L 0,34.979 Q -14.489,34.979 -24.734,24.734 Q -34.979,14.489 -34.979,0 L -34.979,0 Q -34.979,-14.489 -24.734,-24.734 Q -14.489,-34.979 0,-34.979 L 0,-34.979 Q 14.489,-34.979 24.734,-24.734 Q 34.979,-14.489 34.979,0 L 34.979,0"
       fill="#EEEEEE"
       stroke="#444444"
       stroke-width="2"
       stroke-linejoin="round"
       stroke-linecap="butt"
       id="path28" />
    <path
       d=" M 3.946,0 Q 3.946,1.634 2.79,2.79 Q 1.634,3.946 0,3.946 L 0,3.946 Q -1.634,3.946 -2.79,2.79 Q -3.946,1.634 -3.946,0 L -3.946,0 Q -3.946,-1.634 -2.79,-2.79 Q -1.634,-3.946 0,-3.946 L 0,-3.946 Q 1.634,-3.946 2.79,-2.79 Q 3.946,-1.634 3.946,0 L 3.946,0"
       fill="#444444"
       stroke="#444444"
       stroke-width="2"
       stroke-linejoin="round"
       stroke-linecap="butt"
       id="path30" />
    <path
       d=" M 39.076,0 Q 39.076,16.186 27.631,27.631 Q 16.186,39.076 0,39.076 L 0,39.076 Q -16.186,39.076 -27.631,27.631 Q -39.076,16.186 -39.076,0 L -39.076,0 Q -39.076,-16.186 -27.631,-27.631 Q -16.186,-39.076 0,-39.076 L 0,-39.076 Q 16.186,-39.076 27.631,-27.631 Q 39.076,-16.186 39.076,0 L 39.076,0 M 37.076,0 Q 37.076,15.357 26.216,26.216 Q 15.357,37.076 0,37.076 L 0,37.076 Q -15.357,37.076 -26.216,26.216 Q -37.076,15.357 -37.076,0 L -37.076,0 Q -37.076,-15.357 -26.216,-26.216 Q -15.357,-37.076 0,-37.076 L 0,-37.076 Q 15.357,-37.076 26.216,-26.216 Q 37.076,-15.357 37.076,0 L 37.076,0"
       fill="#444444"
       id="path32" />
    <path
       d=" M 38.076,4.217 L 23.308,0 L 38.076,-4.217 L 52.843,0 L 38.076,4.217"
       fill="#EEEEEE"
       stroke="#444444"
       stroke-width="2"
       stroke-linejoin="round"
       stroke-linecap="butt"
       id="path34" />
    <path
       d=" M 37.479,7.929 L 23.196,2.285 L 38.306,-0.465 L 52.589,5.18 L 37.479,7.929"
       fill="#EEEEEE"
       stroke="#444444"
       stroke-width="2"
       stroke-linejoin="round"
       stroke-linecap="butt"
       id="path36" />
    <path
       d=" M 36.521,11.564 L 22.86,4.547 L 38.167,3.292 L 51.828,10.309 L 36.521,11.564"
       fill="#EEEEEE"
       stroke="#444444"
       stroke-width="2"
       stroke-linejoin="round"
       stroke-linecap="butt"
       id="path38" />
    <path
       d=" M 35.212,15.088 L 22.304,6.766 L 37.66,7.017 L 50.568,15.34 L 35.212,15.088"
       fill="#EEEEEE"
       stroke="#444444"
       stroke-width="2"
       stroke-linejoin="round"
       stroke-linecap="butt"
       id="path40" />
    <path
       d=" M 33.563,18.467 L 21.534,8.92 L 36.791,10.675 L 48.821,20.222 L 33.563,18.467"
       fill="#EEEEEE"
       stroke="#444444"
       stroke-width="2"
       stroke-linejoin="round"
       stroke-linecap="butt"
       id="path42" />
    <path
       d=" M 31.592,21.668 L 20.556,10.987 L 35.568,14.23 L 46.604,24.91 L 31.592,21.668"
       fill="#EEEEEE"
       stroke="#444444"
       stroke-width="2"
       stroke-linejoin="round"
       stroke-linecap="butt"
       id="path44" />
    <path
       d=" M 29.316,24.66 L 19.38,12.949 L 34.002,17.647 L 43.938,29.358 L 29.316,24.66"
       fill="#EEEEEE"
       stroke="#444444"
       stroke-width="2"
       stroke-linejoin="round"
       stroke-linecap="butt"
       id="path46" />
    <path
       d=" M 26.758,27.415 L 18.017,14.786 L 32.108,20.895 L 40.848,33.523 L 26.758,27.415"
       fill="#EEEEEE"
       stroke="#444444"
       stroke-width="2"
       stroke-linejoin="round"
       stroke-linecap="butt"
       id="path48" />
    <path
       d=" M 23.942,29.906 L 16.481,16.481 L 29.906,23.942 L 37.366,37.366 L 23.942,29.906"
       fill="#EEEEEE"
       stroke="#444444"
       stroke-width="2"
       stroke-linejoin="round"
       stroke-linecap="butt"
       id="path50" />
    <path
       d=" M 20.895,32.108 L 14.786,18.017 L 27.415,26.758 L 33.523,40.848 L 20.895,32.108"
       fill="#EEEEEE"
       stroke="#444444"
       stroke-width="2"
       stroke-linejoin="round"
       stroke-linecap="butt"
       id="path52" />
    <path
       d=" M 17.647,34.002 L 12.949,19.38 L 24.66,29.316 L 29.358,43.938 L 17.647,34.002"
       fill="#EEEEEE"
       stroke="#444444"
       stroke-width="2"
       stroke-linejoin="round"
       stroke-linecap="butt"
       id="path54" />
    <path
       d=" M 14.23,35.568 L 10.987,20.556 L 21.668,31.592 L 24.91,46.604 L 14.23,35.568"
       fill="#EEEEEE"
       stroke="#444444"
       stroke-width="2"
       stroke-linejoin="round"
       stroke-linecap="butt"
       id="path56" />
    <path
       d=" M 10.675,36.791 L 8.92,21.534 L 18.467,33.563 L 20.222,48.821 L 10.675,36.791"
       fill="#EEEEEE"
       stroke="#444444"
       stroke-width="2"
       stroke-linejoin="round"
       stroke-linecap="butt"
       id="path58" />
    <path
       d=" M 7.017,37.66 L 6.766,22.304 L 15.088,35.212 L 15.34,50.568 L 7.017,37.66"
       fill="#EEEEEE"
       stroke="#444444"
       stroke-width="2"
       stroke-linejoin="round"
       stroke-linecap="butt"
       id="path60" />
    <path
       d=" M 3.292,38.167 L 4.547,22.86 L 11.564,36.521 L 10.309,51.828 L 3.292,38.167"
       fill="#EEEEEE"
       stroke="#444444"
       stroke-width="2"
       stroke-linejoin="round"
       stroke-linecap="butt"
       id="path62" />
    <path
       d=" M -0.465,38.306 L 2.285,23.196 L 7.929,37.479 L 5.18,52.589 L -0.465,38.306"
       fill="#EEEEEE"
       stroke="#444444"
       stroke-width="2"
       stroke-linejoin="round"
       stroke-linecap="butt"
       id="path64" />
    <path
       d=" M -4.217,38.076 L 0,23.308 L 4.217,38.076 L 0,52.843 L -4.217,38.076"
       fill="#EEEEEE"
       stroke="#444444"
       stroke-width="2"
       stroke-linejoin="round"
       stroke-linecap="butt"
       id="path66" />
    <path
       d=" M -7.929,37.479 L -2.285,23.196 L 0.465,38.306 L -5.18,52.589 L -7.929,37.479"
       fill="#EEEEEE"
       stroke="#444444"
       stroke-width="2"
       stroke-linejoin="round"
       stroke-linecap="butt"
       id="path68" />
    <path
       d=" M -11.564,36.521 L -4.547,22.86 L -3.292,38.167 L -10.309,51.828 L -11.564,36.521"
       fill="#EEEEEE"
       stroke="#444444"
       stroke-width="2"
       stroke-linejoin="round"
       stroke-linecap="butt"
       id="path70" />
    <path
       d=" M -15.088,35.212 L -6.766,22.304 L -7.017,37.66 L -15.34,50.568 L -15.088,35.212"
       fill="#EEEEEE"
       stroke="#444444"
       stroke-width="2"
       stroke-linejoin="round"
       stroke-linecap="butt"
       id="path72" />
    <path
       d=" M -18.467,33.563 L -8.92,21.534 L -10.675,36.791 L -20.222,48.821 L -18.467,33.563"
       fill="#EEEEEE"
       stroke="#444444"
       stroke-width="2"
       stroke-linejoin="round"
       stroke-linecap="butt"
       id="path74" />
    <path
       d=" M -21.668,31.592 L -10.987,20.556 L -14.23,35.568 L -24.91,46.604 L -21.668,31.592"
       fill="#EEEEEE"
       stroke="#444444"
       stroke-width="2"
       stroke-linejoin="round"
       stroke-linecap="butt"
       id="path76" />
    <path
       d=" M -24.66,29.316 L -12.949,19.38 L -17.647,34.002 L -29.358,43.938 L -24.66,29.316"
       fill="#EEEEEE"
       stroke="#444444"
       stroke-width="2"
       stroke-linejoin="round"
       stroke-linecap="butt"
       id="path78" />
    <path
       d=" M -27.415,26.758 L -14.786,18.017 L -20.895,32.108 L -33.523,40.848 L -27.415,26.758"
       fill="#EEEEEE"
       stroke="#444444"
       stroke-width="2"
       stroke-linejoin="round"
       stroke-linecap="butt"
       id="path80" />
    <path
       d=" M -29.906,23.942 L -16.481,16.481 L -23.942,29.906 L -37.366,37.366 L -29.906,23.942"
       fill="#EEEEEE"
       stroke="#444444"
       stroke-width="2"
       stroke-linejoin="round"
       stroke-linecap="butt"
       id="path82" />
    <path
       d=" M -32.108,20.895 L -18.017,14.786 L -26.758,27.415 L -40.848,33.523 L -32.108,20.895"
       fill="#EEEEEE"
       stroke="#444444"
       stroke-width="2"
       stroke-linejoin="round"
       stroke-linecap="butt"
       id="path84" />
    <path
       d=" M -34.002,17.647 L -19.38,12.949 L -29.316,24.66 L -43.938,29.358 L -34.002,17.647"
       fill="#EEEEEE"
       stroke="#444444"
       stroke-width="2"
       stroke-linejoin="round"
       stroke-linecap="butt"
       id="path86" />
    <path
       d=" M -35.568,14.23 L -20.556,10.987 L -31.592,21.668 L -46.604,24.91 L -35.568,14.23"
       fill="#EEEEEE"
       stroke="#444444"
       stroke-width="2"
       stroke-linejoin="round"
       stroke-linecap="butt"
       id="path88" />
    <path
       d=" M -36.791,10.675 L -21.534,8.92 L -33.563,18.467 L -48.821,20.222 L -36.791,10.675"
       fill="#EEEEEE"
       stroke="#444444"
       stroke-width="2"
       stroke-linejoin="round"
       stroke-linecap="butt"
       id="path90" />
    <path
       d=" M -37.66,7.017 L -22.304,6.766 L -35.212,15.088 L -50.568,15.34 L -37.66,7.017"
       fill="#EEEEEE"
       stroke="#444444"
       stroke-width="2"
       stroke-linejoin="round"
       stroke-linecap="butt"
       id="path92" />
    <path
       d=" M -38.167,3.292 L -22.86,4.547 L -36.521,11.564 L -51.828,10.309 L -38.167,3.292"
       fill="#EEEEEE"
       stroke="#444444"
       stroke-width="2"
       stroke-linejoin="round"
       stroke-linecap="butt"
       id="path94" />
    <path
       d=" M -38.306,-0.465 L -23.196,2.285 L -37.479,7.929 L -52.589,5.18 L -38.306,-0.465"
       fill="#EEEEEE"
       stroke="#444444"
       stroke-width="2"
       stroke-linejoin="round"
       stroke-linecap="butt"
       id="path96" />
    <path
       d=" M -38.076,-4.217 L -23.308,0 L -38.076,4.217 L -52.843,0 L -38.076,-4.217"
       fill="#EEEEEE"
       stroke="#444444"
       stroke-width="2"
       stroke-linejoin="round"
       stroke-linecap="butt"
       id="path98" />
    <path
       d=" M -37.479,-7.929 L -23.196,-2.285 L -38.306,0.465 L -52.589,-5.18 L -37.479,-7.929"
       fill="#EEEEEE"
       stroke="#444444"
       stroke-width="2"
       stroke-linejoin="round"
       stroke-linecap="butt"
       id="path100" />
    <path
       d=" M -36.521,-11.564 L -22.86,-4.547 L -38.167,-3.292 L -51.828,-10.309 L -36.521,-11.564"
       fill="#EEEEEE"
       stroke="#444444"
       stroke-width="2"
       stroke-linejoin="round"
       stroke-linecap="butt"
       id="path102" />
    <path
       d=" M -35.212,-15.088 L -22.304,-6.766 L -37.66,-7.017 L -50.568,-15.34 L -35.212,-15.088"
       fill="#EEEEEE"
       stroke="#444444"
       stroke-width="2"
       stroke-linejoin="round"
       stroke-linecap="butt"
       id="path104" />
    <path
       d=" M -33.563,-18.467 L -21.534,-8.92 L -36.791,-10.675 L -48.821,-20.222 L -33.563,-18.467"
       fill="#EEEEEE"
       stroke="#444444"
       stroke-width="2"
       stroke-linejoin="round"
       stroke-linecap="butt"
       id="path106" />
    <path
       d=" M -31.592,-21.668 L -20.556,-10.987 L -35.568,-14.23 L -46.604,-24.91 L -31.592,-21.668"
       fill="#EEEEEE"
       stroke="#444444"
       stroke-width="2"
       stroke-linejoin="round"
       stroke-linecap="butt"
       id="path108" />
    <path
       d=" M -29.316,-24.66 L -19.38,-12.949 L -34.002,-17.647 L -43.938,-29.358 L -29.316,-24.66"
       fill="#EEEEEE"
       stroke="#444444"
       stroke-width="2"
       stroke-linejoin="round"
       stroke-linecap="butt"
       id="path110" />
    <path
       d=" M -26.758,-27.415 L -18.017,-14.786 L -32.108,-20.895 L -40.848,-33.523 L -26.758,-27.415"
       fill="#EEEEEE"
       stroke="#444444"
       stroke-width="2"
       stroke-linejoin="round"
       stroke-linecap="butt"
       id="path112" />
    <path
       d=" M -23.942,-29.906 L -16.481,-16.481 L -29.906,-23.942 L -37.366,-37.366 L -23.942,-29.906"
       fill="#EEEEEE"
       stroke="#444444"
       stroke-width="2"
       stroke-linejoin="round"
       stroke-linecap="butt"
       id="path114" />
    <path
       d=" M -20.895,-32.108 L -14.786,-18.017 L -27.415,-26.758 L -33.523,-40.848 L -20.895,-32.108"
       fill="#EEEEEE"
       stroke="#444444"
       stroke-width="2"
       stroke-linejoin="round"
       stroke-linecap="butt"
       id="path116" />
    <path
       d=" M -17.647,-34.002 L -12.949,-19.38 L -24.66,-29.316 L -29.358,-43.938 L -17.647,-34.002"
       fill="#EEEEEE"
       stroke="#444444"
       stroke-width="2"
       stroke-linejoin="round"
       stroke-linecap="butt"
       id="path118" />
    <path
       d=" M -14.23,-35.568 L -10.987,-20.556 L -21.668,-31.592 L -24.91,-46.604 L -14.23,-35.568"
       fill="#EEEEEE"
       stroke="#444444"
       stroke-width="2"
       stroke-linejoin="round"
       stroke-linecap="butt"
       id="path120" />
    <path
       d=" M -10.675,-36.791 L -8.92,-21.534 L -18.467,-33.563 L -20.222,-48.821 L -10.675,-36.791"
       fill="#EEEEEE"
       stroke="#444444"
       stroke-width="2"
       stroke-linejoin="round"
       stroke-linecap="butt"
       id="path122" />
    <path
       d=" M -7.017,-37.66 L -6.766,-22.304 L -15.088,-35.212 L -15.34,-50.568 L -7.017,-37.66"
       fill="#EEEEEE"
       stroke="#444444"
       stroke-width="2"
       stroke-linejoin="round"
       stroke-linecap="butt"
       id="path124" />
    <path
       d=" M -3.292,-38.167 L -4.547,-22.86 L -11.564,-36.521 L -10.309,-51.828 L -3.292,-38.167"
       fill="#EEEEEE"
       stroke="#444444"
       stroke-width="2"
       stroke-linejoin="round"
       stroke-linecap="butt"
       id="path126" />
    <path
       d=" M 0.465,-38.306 L -2.285,-23.196 L -7.929,-37.479 L -5.18,-52.589 L 0.465,-38.306"
       fill="#EEEEEE"
       stroke="#444444"
       stroke-width="2"
       stroke-linejoin="round"
       stroke-linecap="butt"
       id="path128" />
    <path
       d=" M 4.217,-38.076 L 0,-23.308 L -4.217,-38.076 L 0,-52.843 L 4.217,-38.076"
       fill="#EEEEEE"
       stroke="#444444"
       stroke-width="2"
       stroke-linejoin="round"
       stroke-linecap="butt"
       id="path130" />
    <path
       d=" M 7.929,-37.479 L 2.285,-23.196 L -0.465,-38.306 L 5.18,-52.589 L 7.929,-37.479"
       fill="#EEEEEE"
       stroke="#444444"
       stroke-width="2"
       stroke-linejoin="round"
       stroke-linecap="butt"
       id="path132" />
    <path
       d=" M 11.564,-36.521 L 4.547,-22.86 L 3.292,-38.167 L 10.309,-51.828 L 11.564,-36.521"
       fill="#EEEEEE"
       stroke="#444444"
       stroke-width="2"
       stroke-linejoin="round"
       stroke-linecap="butt"
       id="path134" />
    <path
       d=" M 15.088,-35.212 L 6.766,-22.304 L 7.017,-37.66 L 15.34,-50.568 L 15.088,-35.212"
       fill="#EEEEEE"
       stroke="#444444"
       stroke-width="2"
       stroke-linejoin="round"
       stroke-linecap="butt"
       id="path136" />
    <path
       d=" M 18.467,-33.563 L 8.92,-21.534 L 10.675,-36.791 L 20.222,-48.821 L 18.467,-33.563"
       fill="#EEEEEE"
       stroke="#444444"
       stroke-width="2"
       stroke-linejoin="round"
       stroke-linecap="butt"
       id="path138" />
    <path
       d=" M 21.668,-31.592 L 10.987,-20.556 L 14.23,-35.568 L 24.91,-46.604 L 21.668,-31.592"
       fill="#EEEEEE"
       stroke="#444444"
       stroke-width="2"
       stroke-linejoin="round"
       stroke-linecap="butt"
       id="path140" />
    <path
       d=" M 24.66,-29.316 L 12.949,-19.38 L 17.647,-34.002 L 29.358,-43.938 L 24.66,-29.316"
       fill="#EEEEEE"
       stroke="#444444"
       stroke-width="2"
       stroke-linejoin="round"
       stroke-linecap="butt"
       id="path142" />
    <path
       d=" M 27.415,-26.758 L 14.786,-18.017 L 20.895,-32.108 L 33.523,-40.848 L 27.415,-26.758"
       fill="#EEEEEE"
       stroke="#444444"
       stroke-width="2"
       stroke-linejoin="round"
       stroke-linecap="butt"
       id="path144" />
    <path
       d=" M 29.906,-23.942 L 16.481,-16.481 L 23.942,-29.906 L 37.366,-37.366 L 29.906,-23.942"
       fill="#EEEEEE"
       stroke="#444444"
       stroke-width="2"
       stroke-linejoin="round"
       stroke-linecap="butt"
       id="path146" />
    <path
       d=" M 32.108,-20.895 L 18.017,-14.786 L 26.758,-27.415 L 40.848,-33.523 L 32.108,-20.895"
       fill="#EEEEEE"
       stroke="#444444"
       stroke-width="2"
       stroke-linejoin="round"
       stroke-linecap="butt"
       id="path148" />
    <path
       d=" M 34.002,-17.647 L 19.38,-12.949 L 29.316,-24.66 L 43.938,-29.358 L 34.002,-17.647"
       fill="#EEEEEE"
       stroke="#444444"
       stroke-width="2"
       stroke-linejoin="round"
       stroke-linecap="butt"
       id="path150" />
    <path
       d=" M 35.568,-14.23 L 20.556,-10.987 L 31.592,-21.668 L 46.604,-24.91 L 35.568,-14.23"
       fill="#EEEEEE"
       stroke="#444444"
       stroke-width="2"
       stroke-linejoin="round"
       stroke-linecap="butt"
       id="path152" />
    <path
       d=" M 36.791,-10.675 L 21.534,-8.92 L 33.563,-18.467 L 48.821,-20.222 L 36.791,-10.675"
       fill="#EEEEEE"
       stroke="#444444"
       stroke-width="2"
       stroke-linejoin="round"
       stroke-linecap="butt"
       id="path154" />
    <path
       d=" M 37.66,-7.017 L 22.304,-6.766 L 35.212,-15.088 L 50.568,-15.34 L 37.66,-7.017"
       fill="#EEEEEE"
       stroke="#444444"
       stroke-width="2"
       stroke-linejoin="round"
       stroke-linecap="butt"
       id="path156" />
    <path
       d=" M 38.167,-3.292 L 22.86,-4.547 L 36.521,-11.564 L 51.828,-10.309 L 38.167,-3.292"
       fill="#EEEEEE"
       stroke="#444444"
       stroke-width="2"
       stroke-linejoin="round"
       stroke-linecap="butt"
       id="path158" />
    <path
       d=" M 38.306,0.465 L 23.196,-2.285 L 37.479,-7.929 L 52.589,-5.18 L 38.306,0.465"
       fill="#EEEEEE"
       stroke="#444444"
       stroke-width="2"
       stroke-linejoin="round"
       stroke-linecap="butt"
       id="path160" />
    <g
       id="instance1194"
       transform="translate(0 0)"
       stroke-linejoin="round"
       stroke-linecap="round"
       fill-rule="evenodd"
       fill="none">
      <path
         d=" M 0,0"
         id="path162" />
      <text
         dominant-baseline="text-before-edge"
         style="font: 72px serif"
         fill="#444444"
         transform="translate(-31.5 -385.32)"
         id="text164">N</text>
      <text
         dominant-baseline="text-before-edge"
         style="font: 72px serif"
         fill="#444444"
         transform="translate(-24.667 300)"
         id="text166">S</text>
      <text
         dominant-baseline="text-before-edge"
         style="font: 72px serif"
         fill="#444444"
         transform="translate(-387.32 -42.66)"
         id="text168">W</text>
      <text
         dominant-baseline="text-before-edge"
         style="font: 72px serif"
         fill="#444444"
         transform="translate(313.32 -42.66)"
         id="text170">E</text>
    </g>
  </g>
</svg>
